<svg width="745" height="298" viewBox="0 0 745 298" fill="none" xmlns="http://www.w3.org/2000/svg">
<path d="M656.125 214.218L656.681 215.488L656.125 216.656V214.218ZM742.679 137.421C740.338 133.854 736.358 131.708 732.091 131.708H699.487C694.089 131.708 689.283 135.129 687.517 140.232L685.906 144.888L684.083 139.972C682.242 135.005 677.505 131.708 672.206 131.708H639.335C636.41 131.708 633.634 132.737 631.414 134.521C626.046 132.3 619.969 131.176 613.21 131.176C605.771 131.176 598.842 133.05 592.615 136.749C591.374 137.486 590.177 138.27 589.025 139.1C587.682 138.097 586.267 137.176 584.783 136.34C578.706 132.912 571.771 131.176 564.171 131.176C558.806 131.176 553.833 132.036 549.333 133.737C547.35 132.454 544.987 131.708 542.45 131.708H512.869C507.959 131.708 503.711 134.506 501.609 138.59C494.666 133.669 486.095 131.176 476.017 131.176C468.577 131.176 461.647 133.05 455.422 136.748C454.182 137.485 452.983 138.269 451.831 139.1C450.489 138.097 449.074 137.176 447.59 136.34C441.513 132.912 434.578 131.176 426.978 131.176C421.613 131.176 416.641 132.036 412.139 133.737C410.157 132.454 407.794 131.708 405.257 131.708H380.138C376.358 121.058 366.21 113.397 354.281 113.397C349.602 113.397 345.195 114.578 341.337 116.65C339.093 114.634 336.135 113.398 332.882 113.398H276.317C275.393 113.398 274.494 113.502 273.627 113.69C272.891 109.624 271.702 106.242 270.549 103.664C265.87 93.2089 257.003 85.0369 246.377 80.9835C246.106 76.2942 247.479 71.4862 250.665 65.3808C252.614 61.6435 252.575 57.1808 250.563 53.4782C248.553 49.7742 244.83 47.3142 240.634 46.9142C229.517 45.8555 221.498 48.1449 215.743 51.6689C203.455 40.0142 186.775 31.9502 168.118 28.9182C160.138 27.6209 152.365 27.3315 145.167 27.9782C144.866 25.9462 144.07 23.9755 142.787 22.2582C141.662 20.7489 140.245 19.5462 138.655 18.6876C139.85 16.1556 140.199 13.2409 139.531 10.3929C138.338 5.30222 134.139 1.46754 128.962 0.74087C94.09 -4.1578 65.5033 15.9715 53.8166 39.3969C41.8713 48.0235 34.1246 61.7195 32.3553 77.5915C32.038 80.4382 31.9153 83.2969 31.9846 86.1555C27.6633 88.9782 23.9793 93.1062 21.1668 98.3729C13.8345 112.104 13.1752 132.621 19.0788 147.764C17.8392 152.781 17.9976 157.501 18.1616 162.416C18.2252 164.328 18.2918 166.304 18.2918 168.509C18.2918 170.184 18.3705 171.717 18.5162 173.126C17.4189 173.766 16.3486 174.473 15.3116 175.246C10.0533 179.164 5.86836 184.634 3.20956 191.066C-0.482703 199.998 -1.00763 210.308 1.72984 220.098C4.9309 231.54 12.2116 241.918 21.708 248.576C28.2206 253.138 35.4433 255.84 42.9633 256.569C53.9033 275.27 74.106 289.269 98.61 294.742C107.509 296.73 116.973 297.728 126.659 297.728C134.077 297.728 141.625 297.142 149.15 295.969C178.171 291.442 202.838 279.065 217.39 262.126C220.903 262.79 224.562 262.898 228.335 262.453C233.707 261.812 239.089 260.048 244.333 257.208C255.155 251.341 264.189 241.561 269.114 230.374C269.822 228.766 270.442 227.166 271.015 225.57C278.887 230.466 288.083 232.964 297.242 232.964C307.787 232.964 318.625 229.621 327.361 223.177C328.927 228.394 333.761 232.196 339.487 232.196H369.07C370.215 232.196 371.318 232.03 372.373 231.745C373.427 232.03 374.531 232.196 375.675 232.196H405.257C409.646 232.196 413.511 229.962 415.785 226.572C418.058 229.962 421.923 232.196 426.311 232.196H455.761C460.15 232.196 464.015 229.962 466.289 226.572C468.561 229.962 472.427 232.196 476.815 232.196H506.265C507.409 232.196 508.513 232.03 509.567 231.746C510.622 232.03 511.725 232.196 512.869 232.196H542.45C546.838 232.196 550.706 229.964 552.978 226.574C555.251 229.964 559.118 232.196 563.506 232.196H592.954C597.342 232.196 601.209 229.964 603.482 226.574C605.755 229.964 609.622 232.196 614.01 232.196H643.458C645.619 232.196 647.654 231.652 649.434 230.697L640.277 249.917C638.406 253.842 638.679 258.45 641.001 262.126C643.321 265.802 647.365 268.032 651.711 268.032H684.049C689.098 268.032 693.667 265.032 695.673 260.397L743.717 149.405C745.411 145.492 745.021 140.986 742.679 137.421Z" fill="white"/>
<path fill-rule="evenodd" clip-rule="evenodd" d="M53.5634 134.566C58.2807 131.733 63.7594 129.217 69.8194 127.02C73.2727 125.769 76.9154 124.622 80.7154 123.584C84.5847 122.525 88.6127 121.578 92.7661 120.742L92.8207 120.732L92.8767 120.746C97.7274 122.072 102.902 122.397 107.895 121.725C112.777 121.066 117.485 119.454 121.542 116.888L121.593 116.854L121.653 116.85C125.143 116.586 128.675 116.388 132.233 116.254C135.807 116.121 139.382 116.054 142.939 116.054C156.435 116.054 169.919 117.002 182.567 118.898C194.751 120.725 206.161 123.433 216.058 127.02C220.931 128.786 225.429 130.76 229.455 132.937C233.349 135.042 236.803 137.341 239.734 139.829C250.003 148.546 249.731 155.294 249.303 165.841C249.211 168.113 249.113 170.566 249.113 173.29C249.107 173.956 249.095 174.617 249.079 175.281L248.653 174.593C245.306 169.2 240.282 164.389 233.969 160.172C227.258 155.688 219.09 151.873 209.93 148.738C199.993 145.338 188.85 142.717 177.125 140.897C165.045 139.02 152.343 137.992 139.706 137.832C127.013 137.672 114.37 138.389 102.47 140.004C91.0141 141.558 80.2461 143.945 70.7847 147.182C62.9114 149.877 55.9114 153.174 50.1194 157.088C44.6474 160.785 40.2554 165.032 37.2314 169.84L36.8127 170.505L36.7861 169.718L36.7714 169.137L36.7661 168.508C36.7661 166.442 36.6901 164.593 36.6208 162.873C36.3181 155.468 36.1127 150.413 42.2554 143.585C45.2207 140.29 49.0434 137.282 53.5634 134.566Z" fill="white"/>
<path fill-rule="evenodd" clip-rule="evenodd" d="M40.1633 160.508C42.5873 158.116 45.2726 155.982 48.0873 154.08C54.662 149.638 62.1206 146.311 69.6099 143.749C80.0419 140.179 91.0673 137.888 101.982 136.408C114.465 134.713 127.159 134.044 139.751 134.204C152.426 134.362 165.157 135.365 177.682 137.31C188.965 139.062 200.294 141.605 211.105 145.305C219.735 148.258 228.382 152.074 235.985 157.153C239.443 159.463 242.762 162.095 245.702 165.083C246.107 154.827 245.947 149.864 237.385 142.596C234.437 140.092 231.126 137.968 227.729 136.13C223.595 133.894 219.237 132.033 214.822 130.433C204.303 126.621 193.081 124.145 182.03 122.488C171.205 120.865 160.203 119.992 149.238 119.752C143.065 134.263 62.3926 125.133 40.1873 156.606C40.1113 157.809 40.1206 159.092 40.1633 160.508Z" fill="#DCCBE5"/>
<path fill-rule="evenodd" clip-rule="evenodd" d="M131.341 161.121C131.659 168.44 134.526 172.109 135.283 172.957C136.326 171.697 137.457 170.58 138.655 169.6C144.03 165.209 150.806 163.572 157.498 164.053C164.182 164.534 170.785 167.13 175.823 171.206C177.089 172.229 178.257 173.349 179.303 174.552C179.119 173.065 178.841 171.666 178.477 170.352C176.582 163.501 172.339 158.917 166.782 156.225C161.205 153.524 154.299 152.721 147.099 153.441C143.913 153.761 140.669 154.377 137.457 155.26L134.678 161.956L131.341 161.121Z" fill="#E8BD98"/>
<path fill-rule="evenodd" clip-rule="evenodd" d="M222.35 209.572C220.397 214.646 220.718 220.7 224.854 225.718C224.501 223.218 224.622 220.602 225.145 218.056C225.746 215.129 226.877 212.292 228.425 209.828L228.499 209.71L228.638 209.716C230.211 209.774 231.683 210.285 232.901 211.117C233.925 211.816 234.771 212.744 235.349 213.822C235.927 214.901 236.237 216.132 236.189 217.434C236.145 218.572 235.829 219.765 235.179 220.958C237.614 219.378 239.089 217.58 239.821 215.777C240.457 214.21 240.533 212.636 240.191 211.198C239.85 209.757 239.089 208.449 238.055 207.418C236.754 206.12 235.018 205.257 233.137 205.113L232.51 205.065L233.007 204.681C234.833 203.272 236.891 202.289 239.121 201.904C240.837 201.606 242.653 201.664 244.537 202.153C240.149 198.677 235.51 198.322 231.538 199.893C229.49 200.702 227.618 202.021 226.046 203.688C224.47 205.357 223.197 207.373 222.35 209.572Z" fill="#E8BD98"/>
<path fill-rule="evenodd" clip-rule="evenodd" d="M138.657 179.254C133.749 184.462 130.814 191.645 130.814 199.226C130.814 206.6 133.686 212.421 138.295 216.485C143.322 220.916 150.417 223.265 158.114 223.265C165.762 223.265 172.289 220.958 176.847 216.689C181.227 212.586 183.795 206.662 183.795 199.226V199.173L187.962 190.56L182.026 189.169L181.981 189.046C180.042 183.776 176.637 179.172 172.201 175.946C168.03 172.913 162.943 171.1 157.305 171.1C149.843 171.1 143.347 174.277 138.657 179.254Z" fill="#E8BD98"/>
<path fill-rule="evenodd" clip-rule="evenodd" d="M108.941 229.932C110.734 231.786 113.845 232.858 118.051 232.066C116.149 231.74 114.61 230.946 113.497 229.876C112.505 228.922 111.847 227.748 111.565 226.484C111.282 225.22 111.374 223.866 111.877 222.554C112.491 220.957 113.715 219.42 115.618 218.182C111.294 218.833 108.729 220.86 107.699 223.186C107.189 224.34 107.055 225.568 107.27 226.734C107.486 227.902 108.053 229.013 108.941 229.932Z" fill="#E8BD98"/>
<path fill-rule="evenodd" clip-rule="evenodd" d="M52.3367 176.528C54.2634 166.118 58.4007 159.548 59.2047 158.346L59.0527 158.213L59.3647 158.05C61.39 156.994 63.5087 155.998 65.698 155.069C67.9167 154.126 70.214 153.25 72.5687 152.445C81.75 149.302 92.2193 146.986 103.373 145.478C114.946 143.914 127.261 143.22 139.641 143.376C149.197 143.497 158.781 144.124 168.082 145.248C177.227 146.353 186.109 147.938 194.433 149.996L194.673 150.056L194.609 150.293C193.847 153.137 192.661 158.128 192.065 163.542C191.469 168.942 191.459 174.764 193.046 179.278C194.161 182.453 195.558 184.257 197.078 185.109C198.575 185.949 200.209 185.864 201.815 185.266L202.237 185.109L202.135 185.546C201.323 189.032 200.865 193.05 201.321 197.26C201.777 201.465 203.143 205.866 205.981 210.122L208.91 214.517L210.873 209.61C213.333 203.462 217.447 196.538 222.871 191.624C227.15 187.748 232.243 185.12 237.986 185.098C239.581 185.093 241.142 185.294 242.635 185.692C244.141 186.09 245.579 186.688 246.917 187.47C248.265 188.257 249.514 189.237 250.631 190.396C251.721 191.525 252.683 192.826 253.487 194.282C255.402 197.755 256.437 202.126 256.205 207.266C255.995 211.896 254.759 217.15 252.213 222.933C250.566 226.674 248.19 230.197 245.358 233.261C242.469 236.389 239.102 239.042 235.551 240.966C233.994 241.809 232.405 242.51 230.809 243.045C229.254 243.566 227.694 243.929 226.155 244.112C224.631 244.294 223.123 244.298 221.659 244.105C220.25 243.918 218.882 243.548 217.581 242.974C215.949 242.256 214.395 241.209 212.966 239.794C211.678 238.521 210.489 236.95 209.431 235.054C208.615 235.931 208.159 236.974 208.029 238.089C207.877 239.378 208.158 240.77 208.814 242.122L208.869 242.233L208.809 242.342C203.991 251.204 195.574 258.805 185.039 264.768C173.914 271.064 160.421 275.536 146.313 277.737C138.903 278.893 131.334 279.417 123.855 279.245C116.617 279.078 109.461 278.26 102.618 276.732C83.246 272.405 69.2647 262.748 60.6233 249.61C51.8113 236.214 48.5567 219.205 50.8034 200.545C50.302 201.962 49.85 203.366 49.4473 204.756C48.8433 206.833 48.3447 208.889 47.9487 210.918L47.7834 211.764L47.4847 210.954C46.55 208.429 45.1567 206.11 43.442 204.2C41.5087 202.045 39.1633 200.405 36.6047 199.564C34.0553 198.725 31.2914 198.68 28.506 199.71C27.0887 200.234 25.6648 201.037 24.2611 202.153C26.146 201.664 27.9634 201.606 29.6807 201.904C31.91 202.289 33.9687 203.271 35.794 204.681L36.2913 205.065L35.6647 205.113C33.7834 205.257 32.0474 206.12 30.746 207.417C29.7127 208.449 28.9527 209.757 28.61 211.198C28.2687 212.637 28.3447 214.21 28.9807 215.777C29.7127 217.58 31.1873 219.378 33.622 220.958C32.9727 219.764 32.6567 218.572 32.6127 217.434C32.5647 216.132 32.874 214.901 33.4527 213.822C34.03 212.744 34.8767 211.815 35.9007 211.117C37.118 210.285 38.59 209.774 40.1633 209.715L40.2327 209.713L40.2927 209.747C42.1967 210.842 43.7393 213.348 44.8447 216.34C46.022 219.524 46.714 223.271 46.8247 226.449L46.8753 226.358L46.9367 227.144C47.0807 229.008 47.3154 230.833 47.6367 232.618C47.9647 234.434 48.382 236.213 48.8847 237.951L48.9687 238.242L48.666 238.26C45.6994 238.43 42.854 238.074 40.1767 237.29C37.338 236.458 34.6887 235.142 32.2887 233.461C29.23 231.317 26.566 228.584 24.4096 225.493C22.2075 222.336 20.5329 218.804 19.5096 215.142C18.67 212.14 18.3507 209.181 18.4752 206.374C18.6069 203.406 19.2356 200.606 20.2695 198.106C20.9586 196.438 21.8272 194.905 22.8466 193.552C23.8648 192.197 25.0351 191.017 26.3273 190.054C27.606 189.101 29.01 188.358 30.5073 187.866C31.9513 187.393 33.4874 187.151 35.0847 187.181C41.77 187.305 46.434 191.5 51.0407 195.642L51.8553 196.374L51.862 196.358L51.8593 196.378L52.0007 196.505C50.8967 188.88 51.298 182.141 52.3367 176.528Z" fill="#F6B18B"/>
<path fill-rule="evenodd" clip-rule="evenodd" d="M50.0967 202.633L52.0007 196.505L51.8593 196.378L51.862 196.358L51.8553 196.374L51.0407 195.642C46.434 191.5 41.77 187.305 35.0847 187.181C33.4874 187.151 31.9513 187.393 30.5073 187.866C29.01 188.358 27.606 189.101 26.3273 190.054C25.0351 191.017 23.8648 192.197 22.8466 193.552C21.8272 194.905 20.9586 196.438 20.2695 198.106C19.2356 200.606 18.6069 203.406 18.4752 206.374C18.3507 209.181 18.67 212.14 19.5096 215.142C20.5329 218.804 22.2075 222.336 24.4096 225.493C26.566 228.584 29.23 231.317 32.2887 233.461C34.6887 235.142 37.338 236.458 40.1767 237.29C42.854 238.074 45.6994 238.43 48.666 238.26L48.9687 238.242L48.8847 237.951C13.982 230.141 16.0976 188.612 33.874 191.092C42.4207 192.285 50.0953 202.641 50.0953 202.641L50.0967 202.633ZM168.547 272.187C161.507 274.663 154.002 276.537 146.313 277.737C138.903 278.893 131.334 279.417 123.855 279.245C116.617 279.078 109.461 278.26 102.618 276.732C83.246 272.405 69.2647 262.748 60.6233 249.61C52.798 237.716 49.3567 222.97 50.2567 206.752C50.3753 205.901 50.506 205.15 50.646 204.532C50.646 204.532 53.1647 252.62 93.2634 269.613C133.363 286.606 171.734 270.754 171.734 270.754C171.734 270.754 170.575 271.307 168.547 272.187ZM213.589 203.824C215.975 199.409 219.109 195.033 222.871 191.624C227.15 187.748 232.243 185.12 237.986 185.098C239.581 185.093 241.142 185.294 242.635 185.692C244.141 186.09 245.579 186.688 246.917 187.47C248.265 188.257 249.514 189.237 250.631 190.396C251.721 191.525 252.683 192.826 253.487 194.282C255.402 197.755 256.437 202.126 256.205 207.266C255.995 211.896 254.759 217.15 252.213 222.933C251.71 224.076 251.139 225.197 250.507 226.292L250.19 226.357C263.615 188.062 233.863 175.437 213.469 204.561L213.589 203.824ZM52.3367 176.528C54.2634 166.118 58.4007 159.548 59.2047 158.346L59.0527 158.213L59.3647 158.05C61.0513 157.17 62.8007 156.334 64.6034 155.541C64.6034 155.541 51.378 174.393 52.0007 196.505C50.8967 188.88 51.298 182.141 52.3367 176.528Z" fill="#FDE5D9"/>
<path fill-rule="evenodd" clip-rule="evenodd" d="M111.49 226.089L108.099 229.293C111.178 233.529 115.898 234.989 120.665 233.747C125.433 232.505 127.37 227.341 121.262 228.482C115.153 229.625 111.49 226.089 111.49 226.089ZM26.9568 201.737C27.8888 201.692 28.7981 201.75 29.6808 201.904C31.9101 202.289 33.9688 203.271 35.7941 204.681L36.2915 205.065L35.6648 205.113C33.7835 205.257 32.0475 206.119 30.7461 207.417C29.7128 208.449 28.9528 209.757 28.6101 211.198C28.2688 212.637 28.3448 214.21 28.9808 215.777C29.7128 217.58 31.1875 219.378 33.6221 220.958L33.5648 220.85C34.0048 221.398 34.3515 221.688 34.3515 221.688C21.8273 217.016 21.1336 203.673 26.9568 201.737ZM110.921 199.226C110.921 199.226 110.857 183.89 101.214 173.156C101.214 173.156 104.685 172.397 106.197 173.322C106.197 173.322 100.585 165.304 92.6328 162.321C84.6808 159.34 58.2435 163.177 59.2861 188.966L110.921 199.226ZM59.0528 158.213L59.3648 158.05C61.3901 156.994 63.5088 155.998 65.6981 155.069C67.9168 154.126 70.2141 153.25 72.5688 152.445C81.7501 149.302 92.2195 146.986 103.373 145.478C114.946 143.914 127.261 143.22 139.641 143.376C149.197 143.497 158.781 144.124 168.082 145.248C177.227 146.353 186.109 147.938 194.433 149.996L194.673 150.056L194.609 150.293C193.847 153.137 192.661 158.128 192.065 163.542C191.469 168.942 191.459 174.764 193.046 179.278C194.161 182.453 195.558 184.257 197.078 185.109C198.575 185.949 200.209 185.864 201.815 185.266L202.237 185.109L202.135 185.546C201.323 189.032 200.865 193.05 201.321 197.26C201.777 201.465 203.143 205.866 205.981 210.122L208.753 214.281L208.963 215.033C208.963 215.033 208.622 221.496 210.558 226.488C210.558 226.488 215.363 196.016 235.479 193.892C249.79 192.382 252.186 205.848 249.386 217.657C244.706 237.394 217.057 250.686 209.486 234.654C209.486 234.654 209.49 234.865 209.537 235.242L209.431 235.054C208.615 235.932 208.159 236.974 208.029 238.089C207.877 239.378 208.158 240.77 208.814 242.122L208.869 242.233L208.809 242.342C203.991 251.204 195.574 258.805 185.039 264.768C181.286 266.892 177.263 268.808 173.038 270.5C204.491 253.036 190.414 212.329 171.538 218.805C157.339 223.676 143.277 220.145 143.277 220.145C130.282 215.169 121.626 193.913 135.297 173.322C135.297 173.322 136.23 160.645 153.549 161.204C170.869 161.762 179.631 175.314 179.631 175.314C179.631 175.314 179.473 156.232 142.995 148.329C106.519 140.426 59.0528 158.213 59.0528 158.213Z" fill="#D46D6F"/>
<path fill-rule="evenodd" clip-rule="evenodd" d="M102.835 179.254C98.1448 174.277 91.6488 171.1 84.1875 171.1C78.5502 171.1 73.4635 172.913 69.2915 175.948C64.8568 179.172 61.4515 183.778 59.5128 189.049L59.4675 189.172L53.5315 190.56L57.6982 199.173V199.226C57.6982 206.662 60.2648 212.586 64.6462 216.689C69.2035 220.958 75.7315 223.265 83.3795 223.265C91.0768 223.265 98.1715 220.916 103.197 216.485C107.807 212.421 110.679 206.6 110.679 199.226C110.679 191.645 107.745 184.462 102.835 179.254Z" fill="#E8BD98"/>
<path fill-rule="evenodd" clip-rule="evenodd" d="M106.209 172.957C106.967 172.109 109.834 168.44 110.151 161.121L106.815 161.956L104.037 155.26C100.825 154.377 97.5807 153.761 94.3941 153.442C87.1941 152.721 80.2887 153.524 74.7114 156.225C69.1527 158.917 64.9114 163.501 63.0154 170.352C62.6514 171.666 62.3741 173.065 62.1887 174.552C63.2367 173.348 64.4047 172.229 65.6687 171.206C70.7087 167.13 77.3114 164.534 83.9954 164.053C90.6874 163.572 97.4634 165.209 102.838 169.6C104.037 170.58 105.167 171.697 106.209 172.957Z" fill="#E8BD98"/>
<path fill-rule="evenodd" clip-rule="evenodd" d="M100.454 214.589C96.0953 218.54 89.982 220.698 83.3793 220.698C76.818 220.698 71.2633 218.586 67.37 214.794C63.5513 211.076 61.334 205.75 61.334 199.226C61.334 192.814 63.73 187.293 67.7873 183.374C71.842 179.457 77.554 177.145 84.1873 177.145C90.822 177.145 96.534 179.457 100.589 183.373C104.646 187.293 107.042 192.814 107.042 199.226C107.042 205.696 104.507 210.914 100.454 214.589ZM174.123 214.794C170.229 218.586 164.675 220.698 158.114 220.698C151.511 220.698 145.397 218.54 141.038 214.589C136.985 210.914 134.451 205.696 134.451 199.226C134.451 192.814 136.847 187.293 140.905 183.373C144.959 179.457 150.671 177.145 157.305 177.145C163.939 177.145 169.65 179.457 173.705 183.374C177.762 187.293 180.159 192.814 180.159 199.226C180.159 205.75 177.942 211.076 174.123 214.794Z" fill="white"/>
<path fill-rule="evenodd" clip-rule="evenodd" d="M60.9433 119.445C62.502 120.502 64.162 121.397 65.9126 122.105L66.4846 122.336L65.91 122.554C60.0953 124.776 54.7953 127.313 50.1513 130.166C45.6926 132.906 41.8406 135.937 38.718 139.258C38.3806 139.618 38.0513 139.977 37.7326 140.336C37.4153 140.689 37.1153 141.036 36.83 141.374L36.562 141.692L36.418 141.302C35.5393 138.928 34.8913 136.18 34.4953 133.257C33.638 126.94 33.9526 119.793 35.626 113.801C37.31 107.77 40.374 102.898 45.01 101.182C45.7233 100.918 46.474 100.729 47.2633 100.622L47.4606 100.596L47.5246 100.784C48.5193 103.692 49.7846 106.453 51.3006 108.986C52.7793 111.456 54.4993 113.713 56.442 115.681C57.834 117.093 59.338 118.357 60.9433 119.445Z" fill="#935C29"/>
<path fill-rule="evenodd" clip-rule="evenodd" d="M43.3875 169.976C44.8755 168.258 46.6115 166.605 48.5528 165.028L49.2208 164.485L48.9328 165.294C48.0955 167.657 47.3581 170.426 46.8741 173.62C46.3901 176.817 46.1595 180.437 46.3341 184.496L46.3608 185.108L45.9248 184.677C44.5621 183.337 43.2821 181.678 42.2448 180.108C40.9168 178.097 39.9768 176.22 39.7568 175.328L39.7341 175.24L39.7781 175.157C40.7275 173.374 41.9421 171.644 43.3875 169.976Z" fill="#3B2015"/>
<path fill-rule="evenodd" clip-rule="evenodd" d="M207.419 188.15C208.491 181.873 210.843 176.06 212.203 173.053C209.874 175.75 206.959 177.629 204.407 178.525C203.331 178.902 202.317 179.108 201.431 179.128C200.523 179.149 199.747 178.976 199.175 178.594C198.762 178.321 198.457 177.94 198.285 177.452C197.225 174.433 197.041 170.612 197.294 166.77C197.686 160.838 199.119 154.85 199.969 151.713L200.033 151.477L200.267 151.544C201.627 151.929 202.965 152.326 204.277 152.736C205.582 153.142 206.874 153.565 208.147 154.001C217.529 157.21 225.758 161.116 232.25 165.688C238.338 169.976 242.901 174.857 245.455 180.308L245.689 180.808L245.163 180.641C244.019 180.278 242.841 180.004 241.638 179.822C240.439 179.641 239.218 179.55 237.986 179.556C231.865 179.577 226.453 181.816 221.813 185.296C216.171 189.526 211.669 195.597 208.419 201.765L208.159 202.26L207.977 201.732C206.534 197.546 206.639 192.721 207.419 188.15Z" fill="#5F2E15"/>
<path fill-rule="evenodd" clip-rule="evenodd" d="M96.198 115.48C87.2234 113.264 78.106 106.658 70.5247 93.6662C70.7927 98.6035 72.0567 102.897 74.0541 106.545C76.3821 110.796 79.7074 114.174 83.6167 116.678L84.09 116.981L83.5434 117.115C82.9034 117.273 82.2927 117.426 81.7127 117.577C81.1487 117.721 80.5447 117.881 79.9021 118.054L79.8807 118.058C76.058 118.725 72.5381 118.449 69.3661 117.429C65.9514 116.33 62.9434 114.367 60.3981 111.79C58.5927 109.961 57.0087 107.819 55.6661 105.451C54.2914 103.025 53.1687 100.358 52.3207 97.5435C51.4661 94.7075 50.8914 91.7248 50.6181 88.6875C50.3474 85.6915 50.3714 82.6435 50.706 79.6315C51.1767 75.4155 52.2621 71.2635 54.0154 67.4209C55.6594 63.8195 57.8914 60.4888 60.7541 57.6275L61.29 57.0929L61.162 57.8395C60.2687 63.0688 60.4034 68.3195 61.7154 73.3222C62.8621 77.6915 64.9087 81.8742 67.9554 85.6888C67.6434 84.5915 67.3647 83.4995 67.1194 82.4141C63.8714 68.0288 66.4461 54.6541 73.2341 43.8368C80.0207 33.0248 91.0181 24.7702 104.621 20.6209C106.161 20.1502 107.735 19.7328 109.339 19.3715L110.074 19.2048L109.573 19.7675C103.611 26.4475 100.217 34.2368 98.5087 42.0968C96.3647 51.9648 96.8767 61.9462 98.3114 69.9902C100.39 64.0782 102.613 58.7542 105.863 53.9715C109.278 48.9502 113.822 44.5315 120.518 40.6675L121.081 40.3421L120.865 40.9555C119.695 44.2942 118.97 47.5088 118.599 50.5822C118.194 53.9568 118.218 57.1608 118.554 60.1701L118.555 60.1902C118.575 60.9715 118.659 61.7755 118.807 62.5995C118.953 63.4088 119.163 64.2408 119.439 65.0942L119.443 65.1088C120.926 71.0435 123.874 76.9408 127.807 81.2448C131.107 84.8555 135.099 87.3421 139.495 87.7808C137.986 86.2821 133.241 81.3142 129.382 74.5488C127.053 70.4648 125.045 65.7235 124.262 60.6875L124.258 60.6515C124.237 57.3809 126.203 54.6101 129.598 52.4728C133.819 49.8128 140.269 48.1288 147.839 47.6808C155.394 47.2341 164.077 48.0155 172.786 50.2875C191.211 55.0942 209.762 66.5702 218.038 87.1742C217.814 83.1995 217.938 78.8022 219.269 74.9888C220.79 70.6262 223.881 67.0355 229.805 65.7182L230.217 65.6275L230.086 66.0289C229.078 69.1182 228.031 73.5048 227.914 78.6302C227.829 82.3715 228.239 86.5102 229.519 90.8262L229.606 91.1155L229.303 91.1355C225.722 91.3675 222.129 92.2675 218.695 93.9128C215.469 95.4582 212.381 97.6635 209.573 100.591L209.243 100.934L209.161 100.465C205.421 79.2342 185.417 72.9328 179.618 71.5382C187.479 76.0008 192.898 81.1808 196.63 86.1835C203.559 95.4715 204.69 104.16 204.873 106.534L204.879 106.613L204.837 106.681C204.439 107.307 204.05 107.958 203.671 108.632C203.525 108.892 203.381 109.153 203.238 109.418L203.698 108.994C204.193 108.542 204.693 108.098 205.199 107.662L205.227 107.637L205.259 107.622C206.794 106.945 208.421 106.454 210.073 106.168C213.486 105.577 217.009 105.856 220.055 107.133C223.113 108.414 225.691 110.699 227.202 114.117C227.533 114.862 227.811 115.662 228.033 116.518C228.373 112.307 227.121 108.968 224.877 106.538C222.611 104.086 219.333 102.549 215.655 101.968C215.162 101.889 214.654 101.827 214.134 101.783L213.357 101.717L214.035 101.333C221.003 97.3795 227.351 96.2728 232.819 97.1968C237.81 98.0408 242.061 100.577 245.375 104.182C248.681 107.781 251.055 112.449 252.299 117.568C254.153 125.202 253.494 133.845 249.67 141.447L249.505 141.776L249.269 141.494C248.517 140.594 247.67 139.676 246.721 138.732C245.767 137.786 244.709 136.813 243.535 135.806C240.321 133.048 236.569 130.518 232.367 128.218C228.015 125.835 223.177 123.697 217.95 121.802C210.102 118.958 201.354 116.649 192.051 114.878C182.419 113.044 172.191 111.784 161.746 111.1L161.022 111.051L161.63 110.655C167.787 106.642 169.51 101.361 169.965 99.2942C166.079 103.862 161.078 106.584 156.291 108.198C151.274 109.892 146.491 110.369 143.49 110.487L141.645 110.49L140.343 110.5C138.431 110.516 136.517 110.552 134.603 110.606C132.699 110.661 130.793 110.735 128.885 110.827L128.362 110.853L128.682 110.44C130.531 108.049 132.007 105.286 132.998 102.153C133.769 99.7102 134.245 97.0422 134.37 94.1515C132.029 101.347 126.423 107.973 119.177 112.076C115.835 113.968 112.142 115.326 108.261 115.957C104.377 116.589 100.302 116.493 96.198 115.48Z" fill="#5F2E15"/>
<path fill-rule="evenodd" clip-rule="evenodd" d="M206.127 153.326C206.805 153.548 207.478 153.772 208.147 154.001C217.529 157.21 225.758 161.116 232.25 165.688C238.338 169.976 242.901 174.857 245.455 180.308L245.689 180.808L245.163 180.641C244.019 180.278 242.841 180.004 241.638 179.822C240.439 179.641 239.218 179.55 237.986 179.556C231.865 179.577 226.453 181.816 221.813 185.296C219.119 187.316 216.687 189.754 214.526 192.422C212.863 180.653 218.91 164.21 218.91 164.21C218.91 164.21 205.859 176.665 203.342 172.425C201.355 169.078 204.65 157.892 206.127 153.326Z" fill="#3B2015"/>
<path fill-rule="evenodd" clip-rule="evenodd" d="M169.813 99.4702C172.005 95.0516 170.521 90.5315 170.521 90.5315C161.175 105.801 137.915 105.753 131.717 105.453C130.874 107.264 129.853 108.926 128.682 110.44L128.362 110.853L128.885 110.828C130.793 110.736 132.699 110.661 134.603 110.606C136.517 110.552 138.431 110.516 140.343 110.5L141.645 110.49L143.49 110.488C146.491 110.369 151.274 109.892 156.291 108.198C161.015 106.605 165.95 103.932 169.813 99.4702ZM227.453 125.726C221.191 109.964 202.366 110.574 202.366 110.574C199.099 98.8729 185.165 93.7289 185.165 93.7289C190.927 102.869 190.729 110.42 190.729 110.42C184.813 104.668 172.731 103.141 168.729 102.784C167.567 105.181 165.455 108.162 161.63 110.656L161.022 111.052L161.746 111.1C172.191 111.784 182.419 113.044 192.051 114.878C201.354 116.649 210.102 118.958 217.95 121.802C221.283 123.012 224.459 124.318 227.453 125.726ZM226.427 112.613C226.71 113.088 226.969 113.588 227.202 114.117C227.533 114.862 227.811 115.662 228.033 116.518C228.359 112.461 227.21 109.214 225.119 106.81C229.311 107.777 236.107 110.194 238.899 115.98C241.833 122.056 242.311 130.393 242.337 134.808C239.399 132.434 236.057 130.238 232.367 128.218C231.211 127.585 230.021 126.969 228.798 126.372C228.918 123.101 228.693 117.573 226.427 112.613ZM60.9434 119.445C62.502 120.502 64.162 121.397 65.9127 122.105L66.4847 122.336L65.91 122.554C60.0954 124.776 54.7954 127.313 50.1514 130.166C48.9687 130.894 47.8274 131.641 46.7327 132.409C45.2754 121.966 49.9874 114.164 52.4927 110.854C53.682 112.601 55.0007 114.221 56.442 115.681C57.834 117.093 59.338 118.357 60.9434 119.445ZM96.1981 115.48C87.2327 113.266 78.1274 106.673 70.5501 93.7102C70.4461 93.3742 70.342 93.0382 70.2434 92.6955C84.914 112.869 119.795 111.072 134.643 92.3209C134.643 92.3209 134.543 93.1102 134.31 94.3329C131.934 101.458 126.362 108.008 119.177 112.076C115.835 113.968 112.142 115.326 108.261 115.957C104.377 116.589 100.302 116.493 96.1981 115.48Z" fill="#3B2015"/>
<path fill-rule="evenodd" clip-rule="evenodd" d="M39.502 138.446C39.2353 138.716 38.974 138.986 38.718 139.258C38.3806 139.618 38.0513 139.977 37.7326 140.336C37.4153 140.689 37.1153 141.036 36.83 141.374L36.562 141.692L36.418 141.302C35.5393 138.928 34.8913 136.18 34.4953 133.257C33.638 126.94 33.9526 119.793 35.626 113.801C37.31 107.77 40.374 102.898 45.01 101.182C45.7233 100.918 46.474 100.729 47.2633 100.622L47.4606 100.596L47.5246 100.784C47.9913 102.148 48.5166 103.481 49.1006 104.772C44.2086 107.654 33.6406 116.638 39.502 138.446Z" fill="#B0895C"/>
<path fill-rule="evenodd" clip-rule="evenodd" d="M219.605 103.028C218.366 102.541 217.039 102.186 215.655 101.968C215.162 101.889 214.654 101.828 214.134 101.784L213.357 101.717L214.035 101.333C221.003 97.3795 227.351 96.2729 232.819 97.1969C237.81 98.0409 242.061 100.577 245.375 104.182C248.681 107.781 251.055 112.449 252.299 117.568C254.153 125.202 253.494 133.845 249.67 141.448L249.613 141.562L249.335 141.573C249.337 141.56 252.414 119.878 242.618 108.54C234.721 99.3982 223.617 101.765 219.605 103.028ZM180.502 72.0489C178.994 71.3222 178.078 70.9635 178.078 70.9635C198.602 86.6609 202.366 110.574 202.366 110.574C217.573 104.017 228.101 117.982 228.101 117.982C228.021 117.001 227.858 116.074 227.631 115.2C227.499 114.826 227.357 114.466 227.202 114.117C225.691 110.7 223.113 108.414 220.055 107.133C217.009 105.856 213.486 105.577 210.073 106.168C208.421 106.454 206.794 106.945 205.259 107.622L205.227 107.637L205.199 107.662C204.693 108.098 204.193 108.542 203.698 108.994L203.238 109.418C203.381 109.153 203.525 108.892 203.671 108.632C204.05 107.958 204.439 107.308 204.837 106.681L204.879 106.613L204.873 106.534C204.69 104.16 203.559 95.4715 196.63 86.1835C193.039 81.3702 187.887 76.3929 180.502 72.0489ZM126.193 67.8475C125.325 65.5595 124.646 63.1596 124.262 60.6876L124.258 60.6516C124.237 57.3809 126.203 54.6102 129.598 52.4728C133.819 49.8128 140.269 48.1289 147.839 47.6809C155.394 47.2342 164.077 48.0156 172.786 50.2876C191.211 55.0942 209.762 66.5702 218.038 87.1742C217.814 83.1995 217.938 78.8022 219.269 74.9889C220.79 70.6262 223.881 67.0356 229.805 65.7182L230.217 65.6275L230.086 66.0289C229.078 69.1182 228.031 73.5049 227.914 78.6302C227.829 82.3715 228.239 86.5102 229.519 90.8262L229.606 91.1155L229.303 91.1355C228.106 91.2129 226.909 91.3649 225.714 91.5955C224.895 87.6875 223.663 79.7529 225.158 72.3529C225.158 72.3529 219.695 75.4889 218.387 88.7435C218.387 88.7435 197.241 60.0542 169.971 54.2475C142.702 48.4422 129.058 55.2195 126.193 67.8475ZM67.9114 85.5315C68.2834 86.3075 68.5207 86.7502 68.5207 86.7502C64.2127 44.9289 96.3541 30.7782 96.3541 30.7782C82.7194 66.7662 101.645 92.0995 101.645 92.0995C100.159 68.0862 112.821 52.4596 112.821 52.4596C108.35 86.7342 140.141 88.0715 140.141 88.0715C139.886 87.9782 139.635 87.8755 139.387 87.7702C135.034 87.3022 131.081 84.8262 127.807 81.2449C123.874 76.9409 120.926 71.0435 119.443 65.1089L119.439 65.0942C119.163 64.2409 118.953 63.4089 118.807 62.5995C118.659 61.7755 118.575 60.9716 118.555 60.1902L118.554 60.1702C118.218 57.1608 118.194 53.9569 118.599 50.5822C118.97 47.5089 119.695 44.2942 120.865 40.9555L121.081 40.3422L120.518 40.6675C113.822 44.5315 109.278 48.9502 105.863 53.9715C102.613 58.7542 100.39 64.0782 98.3114 69.9902C96.8767 61.9462 96.3647 51.9649 98.5087 42.0969C100.217 34.2369 103.611 26.4475 109.573 19.7675L110.074 19.2049L109.339 19.3715C107.735 19.7329 106.161 20.1502 104.621 20.6209C91.0181 24.7702 80.0207 33.0248 73.2341 43.8368C66.4461 54.6542 63.8714 68.0289 67.1194 82.4142C67.3527 83.4475 67.6167 84.4875 67.9114 85.5315ZM83.8274 116.813L84.09 116.981L83.5434 117.116C82.9034 117.273 82.2927 117.426 81.7127 117.577C81.1487 117.721 80.5447 117.881 79.9021 118.054L79.8807 118.058C76.058 118.725 72.5381 118.449 69.3661 117.429C65.9514 116.33 62.9434 114.368 60.3981 111.79C58.5927 109.961 57.0087 107.82 55.6661 105.452C54.2914 103.025 53.1687 100.358 52.3207 97.5435C51.4661 94.7075 50.8914 91.7249 50.6181 88.6875C50.3474 85.6915 50.3714 82.6435 50.706 79.6315C51.1767 75.4155 52.2621 71.2636 54.0154 67.4209C55.6594 63.8196 57.8914 60.4889 60.7541 57.6275L61.29 57.0929L61.162 57.8395C60.55 61.4222 60.4207 65.0142 60.8207 68.5289C58.0327 72.7062 54.1487 81.0382 55.9367 93.4542C58.6194 112.082 78.5301 118.032 83.4861 116.881C83.6034 116.854 83.7154 116.833 83.8274 116.813Z" fill="#B0895C"/>
<path fill-rule="evenodd" clip-rule="evenodd" d="M83.7447 216.009C93.2421 216.009 100.986 208.265 100.986 198.769C100.986 189.273 93.2421 181.528 83.7447 181.528C74.2487 181.528 66.5034 189.273 66.5034 198.769C66.5034 208.265 74.2487 216.009 83.7447 216.009Z" fill="#4A389B"/>
<path fill-rule="evenodd" clip-rule="evenodd" d="M99.5567 205.65C96.8994 211.746 90.8207 216.009 83.7447 216.009C76.6687 216.009 70.5901 211.746 67.9341 205.65C69.8887 198.76 76.2274 193.712 83.7447 193.712C91.2634 193.712 97.6007 198.76 99.5567 205.65Z" fill="#7042A4"/>
<path fill-rule="evenodd" clip-rule="evenodd" d="M83.7447 208.556C89.1353 208.556 93.5313 204.158 93.5313 198.769C93.5313 193.378 89.1353 188.982 83.7447 188.982C78.3553 188.982 73.958 193.378 73.958 198.769C73.958 204.158 78.3553 208.556 83.7447 208.556Z" fill="#100F0D"/>
<path fill-rule="evenodd" clip-rule="evenodd" d="M73.5781 199.885C78.2248 199.885 82.0141 196.096 82.0141 191.45C82.0141 186.804 78.2248 183.014 73.5781 183.014C68.9314 183.014 65.1421 186.804 65.1421 191.45C65.1421 196.096 68.9314 199.885 73.5781 199.885Z" fill="white"/>
<path fill-rule="evenodd" clip-rule="evenodd" d="M94.8033 207.262C99.4486 207.262 103.238 205.742 103.238 203.877C103.238 202.014 99.4486 200.493 94.8033 200.493C90.1566 200.493 86.366 202.014 86.366 203.877C86.366 205.742 90.1566 207.262 94.8033 207.262Z" fill="white"/>
<path fill-rule="evenodd" clip-rule="evenodd" d="M156.858 216.009C166.354 216.009 174.099 208.265 174.099 198.769C174.099 189.273 166.354 181.528 156.858 181.528C147.362 181.528 139.617 189.273 139.617 198.769C139.617 208.265 147.362 216.009 156.858 216.009Z" fill="#4A389B"/>
<path fill-rule="evenodd" clip-rule="evenodd" d="M172.67 205.65C170.013 211.746 163.934 216.009 156.858 216.009C149.782 216.009 143.703 211.746 141.046 205.65C143.002 198.76 149.341 193.712 156.858 193.712C164.375 193.712 170.714 198.76 172.67 205.65Z" fill="#7042A4"/>
<path fill-rule="evenodd" clip-rule="evenodd" d="M156.858 208.556C162.249 208.556 166.645 204.158 166.645 198.769C166.645 193.378 162.249 188.982 156.858 188.982C151.467 188.982 147.071 193.378 147.071 198.769C147.071 204.158 151.467 208.556 156.858 208.556Z" fill="#100F0D"/>
<path fill-rule="evenodd" clip-rule="evenodd" d="M146.691 199.885C151.337 199.885 155.126 196.096 155.126 191.45C155.126 186.804 151.337 183.014 146.691 183.014C142.045 183.014 138.254 186.804 138.254 191.45C138.254 196.096 142.045 199.885 146.691 199.885Z" fill="white"/>
<path fill-rule="evenodd" clip-rule="evenodd" d="M167.915 207.262C172.562 207.262 176.351 205.742 176.351 203.877C176.351 202.014 172.562 200.493 167.915 200.493C163.269 200.493 159.479 202.014 159.479 203.877C159.479 205.742 163.269 207.262 167.915 207.262Z" fill="white"/>
<path fill-rule="evenodd" clip-rule="evenodd" d="M93.4661 231.922C100.553 248.946 138.031 250.233 147.287 233.125L144.018 231.29L145.909 227.918L155.982 233.573L154.091 236.946L150.658 235.018C140.171 254.288 100.846 254.702 91.6741 232.666L93.4661 231.922Z" fill="#100F0D"/>
<path fill-rule="evenodd" clip-rule="evenodd" d="M118.409 60.9755C117.626 54.9982 118.057 48.2382 120.638 40.8769C107.315 48.5649 102.562 58.4502 98.238 70.9289C95.4766 56.3942 95.606 35.0568 109.391 19.6062C78.1353 26.6648 58.7166 54.6168 68.5206 86.7502C43.8246 57.8368 78.4993 6.43951 127.199 13.2835C113.111 22.9288 105.995 29.4795 103.569 47.7795C112.191 36.9009 120.935 32.9542 132.637 29.8342C127.314 38.5328 123.345 46.9075 124.237 58.4008C125.477 74.3688 140.095 88.0315 140.141 88.0715C128.825 87.4795 120.046 73.4888 118.409 60.9755Z" fill="#100F0D"/>
<path fill-rule="evenodd" clip-rule="evenodd" d="M134.643 92.3209C134.943 132.169 71.3274 132.306 70.2434 92.6956C92.7247 132.392 129.233 114.233 134.643 92.3209Z" fill="#100F0D"/>
<path fill-rule="evenodd" clip-rule="evenodd" d="M252.079 148.721L247.117 145.272C265.169 119.274 239.707 74.6355 202.366 110.574C223.781 67.7822 285.195 101.031 252.079 148.721Z" fill="#100F0D"/>
<path fill-rule="evenodd" clip-rule="evenodd" d="M119.209 65.1675C109.123 33.9955 186.469 28.3235 215.273 70.4942C220.279 60.0129 230.533 58.6769 239.433 59.5236C234.043 69.8596 231.538 79.8422 235.834 91.7502L229.994 93.0409C225.977 81.9049 227.981 71.6996 229.857 65.9542C218.205 68.5436 217.703 80.0702 218.387 88.7436C199.433 37.4849 117.719 40.9729 124.951 63.3236L119.209 65.1675Z" fill="#100F0D"/>
<path fill-rule="evenodd" clip-rule="evenodd" d="M253.918 180.885C253.083 182.968 251.947 183.814 250.619 184.581L247.449 186.412L246.259 182.938C242.014 170.532 227.529 160.889 208.069 154.229C188.442 147.513 163.935 143.924 139.638 143.617C115.359 143.31 91.3314 146.278 72.6461 152.673C57.6541 157.804 45.0327 165.801 39.9901 175.27C40.3741 176.821 43.0221 181.485 46.0941 184.505L44.9967 185.881L38.0461 182.75L34.3434 179.048C32.7301 177.517 30.9581 175.836 30.9581 168.508C30.9581 154.689 28.5647 149.709 38.5434 139.093C45.3194 131.882 55.5047 126.049 67.8461 121.576C74.1861 119.278 81.1114 117.33 88.4421 115.732C92.6714 117.706 98.7714 119.55 105.95 118.762L105.995 118.757C92.8314 120.577 80.4981 123.406 69.9021 127.248C58.0701 131.536 48.4674 137.042 42.4354 143.746C34.9234 152.096 37.0074 157.785 37.0074 168.508C37.0074 168.941 37.0141 169.341 37.0261 169.71C43.2847 159.765 55.3367 152.214 70.7074 146.954C90.0221 140.345 114.765 137.276 139.709 137.592C164.635 137.906 189.81 141.598 210.007 148.51C227.838 154.613 241.921 163.286 248.858 174.466C248.866 174.101 248.87 173.71 248.87 173.29C248.87 158.189 251.981 150.541 239.578 140.013C233.637 134.97 225.534 130.712 215.977 127.248C195.833 119.946 169.413 116.296 142.939 116.296C130.931 116.296 118.934 117.046 107.53 118.549C115.299 117.318 120.705 113.625 123.774 110.881C130.109 110.458 136.526 110.246 142.939 110.246C170.038 110.246 197.193 114.022 218.033 121.576C228.329 125.308 237.125 129.986 243.693 135.622C258.43 148.268 254.921 155.442 254.921 173.29C254.921 177.016 254.55 179.309 253.918 180.885Z" fill="#100F0D"/>
<path fill-rule="evenodd" clip-rule="evenodd" d="M68.2808 52.3409C57.6248 58.0769 52.1755 68.6355 50.9461 79.6582C50.2741 85.6955 50.8622 91.8662 52.5515 97.4742C54.2168 103 56.9422 107.945 60.5702 111.621C65.4595 116.574 72.0701 119.225 79.9955 117.793L81.0581 123.725C70.9435 125.552 62.5075 122.17 56.2702 115.85C51.9328 111.456 48.7021 105.638 46.7621 99.1995C44.8475 92.8435 44.1808 85.8462 44.9448 78.9956C46.3755 66.1569 52.8088 53.8129 65.4221 47.0236L68.2808 52.3409Z" fill="#100F0D"/>
<path fill-rule="evenodd" clip-rule="evenodd" d="M49.6913 100.794C32.8939 99.5702 30.9193 132.981 38.5033 145.089L33.3979 148.28C22.1131 130.261 27.5886 89.3075 51.0859 94.9329L49.6913 100.794Z" fill="#100F0D"/>
<path fill-rule="evenodd" clip-rule="evenodd" d="M51.3221 198.438C45.9581 236.24 62.9195 267.617 102.67 276.496C116.553 279.597 131.723 279.769 146.277 277.498C174.342 273.121 199.961 259.74 209.296 240.881L214.707 243.552C204.471 264.229 177.054 278.796 147.198 283.453C131.937 285.834 115.995 285.646 101.37 282.38C63.2595 273.868 34.8101 241.492 51.3221 198.438Z" fill="#100F0D"/>
<path fill-rule="evenodd" clip-rule="evenodd" d="M35.0808 187.422C31.8848 187.364 28.9421 188.406 26.4701 190.249C23.9212 192.149 21.854 194.904 20.4925 198.197C18.5008 203.017 18.0289 208.954 19.742 215.078C21.754 222.27 26.2914 228.964 32.4274 233.264C37.8008 237.03 44.4274 238.938 51.6528 237.669L52.6928 243.624C43.7701 245.19 35.5981 242.842 28.9768 238.202C21.6862 233.093 16.3034 225.174 13.9284 216.685C11.8378 209.209 12.4404 201.893 14.9154 195.905C16.695 191.6 19.4482 187.961 22.8789 185.404C26.3861 182.79 30.5861 181.312 35.1754 181.397C38.6714 181.461 42.3608 182.433 46.0941 184.505C45.1954 163.626 54.9581 154.369 54.9874 154.336L59.5248 158.305C59.4968 158.336 48.6808 173.56 52.3381 197.128C47.2674 192.64 42.3754 187.557 35.0808 187.422Z" fill="#100F0D"/>
<path fill-rule="evenodd" clip-rule="evenodd" d="M200.845 149.541C200.829 149.593 195.114 167.7 198.513 177.373C199.748 180.886 208.737 178.097 213.434 171.037C213.409 171.077 203.928 189.245 208.206 201.653C214.164 190.348 224.314 179.365 237.986 179.314C242.237 179.298 246.304 180.386 249.844 182.456C253.392 184.53 256.414 187.584 258.569 191.493C263.005 199.537 263.714 211.204 257.521 225.269C253.684 233.985 246.409 241.674 238.297 246.07C234.593 248.077 230.694 249.414 226.837 249.874C222.846 250.35 218.901 249.893 215.245 248.284C208.486 245.308 205.62 238.38 209.486 234.654C211.716 238.768 214.546 241.374 217.678 242.754C220.292 243.905 223.173 244.225 226.128 243.872C229.216 243.504 232.386 242.408 235.437 240.753C242.421 236.969 248.685 230.346 251.992 222.836C257.332 210.706 256.881 200.938 253.276 194.4C251.67 191.486 249.425 189.216 246.796 187.678C244.16 186.138 241.138 185.328 237.986 185.34C225.086 185.388 215.469 198.77 211.097 209.701L208.963 215.033L205.78 210.256C200.057 201.672 200.265 192.506 201.899 185.492C198.559 186.736 195.093 185.833 192.818 179.357C188.754 167.788 195.061 147.826 195.08 147.768L200.845 149.541Z" fill="#100F0D"/>
<path fill-rule="evenodd" clip-rule="evenodd" d="M225.23 226.522C224.197 220.994 225.61 214.761 228.629 209.956C234.113 210.164 238.321 216.021 234.45 221.688C245.147 215.516 240.138 205.406 233.155 204.872C236.605 202.208 240.901 201.097 245.585 202.721C230.834 189.484 212.497 212.482 225.23 226.522Z" fill="#100F0D"/>
<path fill-rule="evenodd" clip-rule="evenodd" d="M46.598 227.333C46.598 221.181 44.1966 212.272 40.1726 209.956C34.6886 210.164 30.4806 216.021 34.3513 221.688C23.6544 215.516 28.6633 205.406 35.646 204.872C32.1966 202.208 27.9006 201.097 23.2173 202.721C37.9673 189.484 55.562 211.808 46.598 227.333Z" fill="#100F0D"/>
<path fill-rule="evenodd" clip-rule="evenodd" d="M84.1875 177.386C71.0475 177.386 61.5768 186.537 61.5768 199.226C61.5768 212.269 70.5141 220.457 83.3795 220.457C95.9981 220.457 106.799 212.516 106.799 199.226C106.799 186.537 97.3288 177.386 84.1875 177.386ZM84.1875 170.858C99.5955 170.858 110.921 184.273 110.921 199.226C110.921 214.78 98.2608 223.508 83.3795 223.508C68.2515 223.508 57.4555 214.536 57.4555 199.226L53.1821 190.394L59.2861 188.964V188.966C63.0821 178.645 72.4501 170.858 84.1875 170.858Z" fill="#100F0D"/>
<path fill-rule="evenodd" clip-rule="evenodd" d="M157.305 177.386C170.445 177.386 179.917 186.537 179.917 199.226C179.917 212.269 170.978 220.457 158.114 220.457C145.494 220.457 134.693 212.516 134.693 199.226C134.693 186.537 144.165 177.386 157.305 177.386ZM157.305 170.858C141.897 170.858 130.573 184.273 130.573 199.226C130.573 214.78 143.231 223.508 158.114 223.508C173.242 223.508 184.038 214.536 184.038 199.226L188.311 190.394L182.207 188.964V188.966C178.411 178.645 169.043 170.858 157.305 170.858Z" fill="#100F0D"/>
<path fill-rule="evenodd" clip-rule="evenodd" d="M61.8608 175.314C71.8875 163.042 94.5995 158.986 106.197 173.322C106.197 173.322 110.118 169.569 110.405 160.809L106.958 161.67L104.214 155.058C84.7195 149.662 63.9928 154.002 61.8608 175.314Z" fill="#100F0D"/>
<path fill-rule="evenodd" clip-rule="evenodd" d="M179.631 175.314C169.606 163.042 146.894 158.986 135.297 173.322C135.297 173.322 131.375 169.569 131.087 160.809L134.534 161.67L137.279 155.058C156.774 149.662 177.501 154.002 179.631 175.314Z" fill="#100F0D"/>
<path fill-rule="evenodd" clip-rule="evenodd" d="M116.733 217.806C101.659 219.146 105.062 235.901 119.509 231.978C110.843 231.6 108.518 222.174 116.733 217.806Z" fill="#100F0D"/>
<path fill-rule="evenodd" clip-rule="evenodd" d="M140.343 110.257C141.111 110.264 160.141 111.336 170.358 98.4356C170.358 98.4356 168.67 116.297 140.106 115.881L140.343 110.257Z" fill="#100F0D"/>
<path fill-rule="evenodd" clip-rule="evenodd" d="M204.666 107.184C204.666 107.184 204.361 85.0635 178.078 70.9635C178.078 70.9635 205.282 75.4502 209.469 100.832L207.209 103.782L209.678 101.596C220.099 100.492 229.97 106.174 228.101 117.982C226.086 106.349 214.155 103.929 205.314 107.864L205.879 104.873L204.666 107.184Z" fill="#100F0D"/>
<path fill-rule="evenodd" clip-rule="evenodd" d="M339.487 219.529H369.07V162.252H339.487V219.529Z" fill="#8A32E0"/>
<path fill-rule="evenodd" clip-rule="evenodd" d="M426.313 219.529H455.761V204.872H426.313V219.529Z" fill="#8A32E0"/>
<path fill-rule="evenodd" clip-rule="evenodd" d="M476.017 143.841C470.863 143.841 466.154 145.106 461.891 147.64C457.627 150.172 454.118 153.392 451.363 157.301C448.877 153.036 445.545 149.728 441.37 147.373C437.194 145.018 432.397 143.841 426.978 143.841C422.003 143.841 417.674 144.818 413.986 146.773C410.301 148.728 407.39 151.304 405.257 154.502V144.374H375.677V219.529H405.257V204.872H400.441V194.345H405.257V179.688C405.257 176.489 406.19 173.978 408.055 172.157C409.923 170.337 412.499 169.425 415.785 169.425C418.983 169.425 421.537 170.337 423.446 172.157C425.358 173.978 426.313 176.489 426.313 179.688V194.345H455.761V179.688C455.761 176.489 456.694 173.978 458.559 172.157C460.426 170.337 463.001 169.425 466.289 169.425C469.487 169.425 472.041 170.337 473.95 172.157C475.861 173.978 476.815 176.489 476.815 179.688V194.345H481.631V204.872H476.815V219.529H506.265V175.956C506.265 166.096 503.621 158.277 498.335 152.502C493.05 146.729 485.61 143.841 476.017 143.841Z" fill="#8A32E0"/>
<path fill-rule="evenodd" clip-rule="evenodd" d="M613.21 143.841C608.058 143.841 603.349 145.106 599.085 147.64C594.822 150.172 591.311 153.392 588.557 157.301C586.07 153.036 582.738 149.728 578.563 147.373C574.387 145.018 569.591 143.841 564.173 143.841C559.198 143.841 554.867 144.818 551.181 146.773C547.494 148.728 544.585 151.304 542.451 154.502V144.374H512.87V219.529H530.815H542.451V204.872V194.345V187.014V179.688C542.451 176.489 543.385 173.978 545.25 172.157C547.117 170.337 549.693 169.425 552.979 169.425C556.177 169.425 558.731 170.337 560.641 172.157C562.551 173.978 563.507 176.489 563.507 179.688V187.014V194.345V204.872V219.529H592.954V204.872V194.345V187.014V179.688C592.954 176.489 593.889 173.978 595.753 172.157C597.619 170.337 600.194 169.425 603.482 169.425C606.681 169.425 609.234 170.337 611.143 172.157C613.054 173.978 614.01 176.489 614.01 179.688V188.909V194.345V204.872V219.529H628.735H643.458V175.956C643.458 166.096 640.815 158.277 635.529 152.502C630.243 146.729 622.803 143.841 613.21 143.841Z" fill="#8A32E0"/>
<path fill-rule="evenodd" clip-rule="evenodd" d="M276.317 126.065V155.514H303.433V187.399C303.433 195.689 290.907 195.631 290.907 187.399V183.417H261.726C261.726 233.591 332.882 230.701 332.882 186.085V155.514V126.065H303.433H276.317Z" fill="#8A32E0"/>
<path fill-rule="evenodd" clip-rule="evenodd" d="M354.281 126.064C346.134 126.064 339.489 132.708 339.489 140.854C339.489 149 346.134 155.645 354.281 155.645C362.426 155.645 369.071 149 369.071 140.854C369.071 132.708 362.426 126.064 354.281 126.064Z" fill="#8A32E0"/>
<path fill-rule="evenodd" clip-rule="evenodd" d="M699.487 144.374L686.313 182.433L672.206 144.374H639.335L670.607 215.706L651.711 255.365H684.049L732.091 144.374H699.487Z" fill="#8A32E0"/>
</svg>
